<?xml version="1.0" encoding="utf-8"?>
<!-- Generator: Adobe Illustrator 23.0.6, SVG Export Plug-In . SVG Version: 6.00 Build 0)  -->
<svg version="1.1" id="Capa_1" xmlns="http://www.w3.org/2000/svg" xmlns:xlink="http://www.w3.org/1999/xlink" x="0px" y="0px"
	 viewBox="0 0 438.9 438.9" style="enable-background:new 0 0 438.9 438.9;" xml:space="preserve">
<g>
	<g>
		<g>
			<path d="M346.6,60.5h-39.4V42.9c0-5.7-6.2-8.3-11.9-8.3h-30.6c-7.3-20.7-25.4-31.1-46.1-31.1c-20.5-0.8-39.2,11.8-46.1,31.1
				h-30.1c-5.7,0-11.4,2.6-11.4,8.3v17.6H91.5c-23.3,0.2-42.4,18.7-43.5,42v297c0,22.8,20.7,39.4,43.5,39.4h255
				c22.8,0,43.5-16.6,43.5-39.4v-297C389,79.2,369.9,60.8,346.6,60.5z M151.7,55.3h28.5c5-0.6,9-4.4,9.8-9.3
				c3.1-13.4,14.8-23,28.5-23.3c13.6,0.4,25.1,10,28,23.3c0.9,5.1,5.2,8.9,10.4,9.3h29.5v41.5H151.7V55.3z M369.4,399.5
				c0,11.4-11.4,18.7-22.8,18.7h-255c-11.4,0-22.8-7.3-22.8-18.7v-297c1.1-11.9,10.9-21,22.8-21.3h39.4v26.4
				c0.5,5.8,5.6,10.2,11.4,9.8h152.9c5.9,0.3,11.1-4,11.9-9.8V81.2h39.4c11.9,0.2,21.7,9.4,22.8,21.3L369.4,399.5L369.4,399.5z"/>
			<path d="M327.9,257.5H222.3v20.7h105.6c5.7,0,10.4-4.6,10.4-10.4S333.6,257.5,327.9,257.5z"/>
			<path d="M206.4,257.5h-96.1c-5.7,0-10.4,4.6-10.4,10.4s4.6,10.4,10.4,10.4h96.1V257.5z"/>
			<path d="M206.4,174.5h-96.1c-5.7,0-10.4,4.6-10.4,10.4c0,5.7,4.6,10.4,10.4,10.4h96.1V174.5z"/>
			<path d="M327.9,174.5H222.3v20.7h105.6c5.7,0,10.4-4.6,10.4-10.4C338.3,179.2,333.6,174.5,327.9,174.5z"/>
			<path d="M206.4,340.4h-96.1c-5.7,0-10.4,4.6-10.4,10.4c0,5.7,4.6,10.4,10.4,10.4h96.1V340.4z"/>
			<path d="M327.9,340.4H222.3v20.7h105.6c5.7,0,10.4-4.6,10.4-10.4C338.3,345.1,333.6,340.4,327.9,340.4z"/>
		</g>
	</g>
</g>
</svg>
