<?xml version="1.0" encoding="utf-8"?>
<!-- Generator: Adobe Illustrator 23.0.6, SVG Export Plug-In . SVG Version: 6.00 Build 0)  -->
<svg version="1.1" id="Capa_1" xmlns="http://www.w3.org/2000/svg" xmlns:xlink="http://www.w3.org/1999/xlink" x="0px" y="0px"
	 viewBox="0 0 438.9 438.9" style="enable-background:new 0 0 438.9 438.9;" xml:space="preserve">
<g>
	<g>
		<g>
			<path d="M347,60.5h-39.4V42.9c0-5.7-6.2-8.3-11.9-8.3h-30.6c-7.3-20.7-25.4-31.1-46.1-31.1c-20.5-0.8-39.2,11.8-46.1,31.1h-30.1
				c-5.7,0-11.4,2.6-11.4,8.3v17.6H91.9c-23.3,0.2-42.4,18.7-43.5,42v297c0,22.8,20.7,39.4,43.5,39.4h255
				c22.8,0,43.5-16.6,43.5-39.4v-297C389.4,79.2,370.3,60.8,347,60.5z M152.1,55.3h28.5c5-0.6,9-4.4,9.8-9.3
				c3.1-13.4,14.8-23,28.5-23.3c13.6,0.4,25.1,10,28,23.3c0.9,5.1,5.2,8.9,10.4,9.3h29.5v41.5H152.1V55.3z M369.8,399.5
				c0,11.4-11.4,18.7-22.8,18.7h-255c-11.4,0-22.8-7.3-22.8-18.7v-297c1.1-11.9,10.9-21,22.8-21.3h39.4v26.4
				c0.5,5.8,5.6,10.2,11.4,9.8h152.9c5.9,0.3,11.1-4,11.9-9.8V81.2H347c11.9,0.2,21.7,9.4,22.8,21.3L369.8,399.5L369.8,399.5z"/>
			<g>
				<path d="M306.9,211c-0.1,2.7-1.3,5.1-3.3,7l-0.2,0.2l-98.9,93.8l-0.4,0.4c-2.1,2.1-4.9,3.3-7.9,3.4h-0.5c-2.5,0-4.9-1.1-6.5-2.9
					l-0.2-0.2l-0.2-0.2L137,259.2c-4.5-4.8-4.6-12.1-0.3-16.9c2.1-1.7,4.6-2.7,7.3-2.7c3.1,0,6,1.3,8.3,3.6l34.2,35.5l9.7,10
					l10.1-9.6l81-77.2c2.1-1.9,4.8-2.9,7.5-2.9c3.1,0,6,1.3,8.2,3.5l0.3,0.4l0.4,0.3c0.2,0.2,0.4,0.3,0.6,0.6
					C306.1,205.8,307.1,208.3,306.9,211z"/>
			</g>
		</g>
	</g>
</g>
</svg>
